<svg xmlns="http://www.w3.org/2000/svg" viewBox="0 0 64 64">
  <rect width="64" height="64" rx="16" fill="#F6CBD2"/>
  <g stroke="#4A1D2B" stroke-width="2.6" stroke-linecap="round" stroke-linejoin="round">
    <ellipse cx="19" cy="15.5" rx="4" ry="3.6" fill="#D47C55"/>
    <ellipse cx="45" cy="15.5" rx="4" ry="3.6" fill="#D47C55"/>
    <path d="M32 13C46 13 51 20 51 32C51 48 45 57 32 57C19 57 13 48 13 32C13 20 18 13 32 13Z" fill="#F0A36F"/>
  </g>
  <path d="M19.5 39C19.5 32.5 25 30 32 30C39 30 44.5 32.5 44.5 39C44.5 48 39 53 32 53C25 53 19.5 48 19.5 39Z" fill="#D47C55"/>
  <ellipse cx="17.5" cy="34" rx="3.2" ry="2.3" fill="#E58A6A"/>
  <ellipse cx="46.5" cy="34" rx="3.2" ry="2.3" fill="#E58A6A"/>
  <g fill="none" stroke="#4A1D2B" stroke-width="2.6" stroke-linecap="round" stroke-linejoin="round">
    <path d="M17.5 27Q21 24 24.5 27"/>
    <path d="M39.5 27Q43 24 46.5 27"/>
    <path d="M26.5 36L30 38M37.5 36L34 38"/>
    <path d="M32 40.5V44M27 47Q32 47 32 44Q32 47 37 47"/>
  </g>
</svg>
